<svg width="29" height="29" viewBox="0 0 29 29" fill="none" xmlns="http://www.w3.org/2000/svg">
<path d="M22 16L25 19L28 16" stroke="black" stroke-linecap="round" stroke-linejoin="round"/>
<path d="M5.13 20.298L6.138 20.316V22.926H5.13V20.298ZM5.22 20.1V9.138L6.03 9.012V20.136L5.22 20.1ZM5.13 6.33H6.138V8.904L5.13 9.03V6.33ZM9.144 10.902C9 10.734 8.808 10.572 8.568 10.416C8.328 10.26 8.058 10.122 7.758 10.002C7.458 9.87 7.128 9.768 6.768 9.696C6.42 9.612 6.054 9.57 5.67 9.57C4.686 9.57 3.96 9.756 3.492 10.128C3.024 10.5 2.79 11.01 2.79 11.658C2.79 12.114 2.91 12.474 3.15 12.738C3.39 13.002 3.756 13.218 4.248 13.386C4.752 13.554 5.388 13.728 6.156 13.908C7.044 14.1 7.812 14.334 8.46 14.61C9.108 14.886 9.606 15.258 9.954 15.726C10.302 16.182 10.476 16.794 10.476 17.562C10.476 18.174 10.356 18.708 10.116 19.164C9.888 19.608 9.564 19.98 9.144 20.28C8.724 20.568 8.232 20.784 7.668 20.928C7.104 21.06 6.492 21.126 5.832 21.126C5.184 21.126 4.548 21.06 3.924 20.928C3.312 20.784 2.73 20.58 2.178 20.316C1.626 20.052 1.11 19.722 0.63 19.326L1.404 17.958C1.596 18.162 1.842 18.366 2.142 18.57C2.454 18.762 2.802 18.942 3.186 19.11C3.582 19.278 4.008 19.416 4.464 19.524C4.92 19.62 5.388 19.668 5.868 19.668C6.78 19.668 7.488 19.506 7.992 19.182C8.496 18.846 8.748 18.36 8.748 17.724C8.748 17.244 8.604 16.86 8.316 16.572C8.04 16.284 7.626 16.044 7.074 15.852C6.522 15.66 5.85 15.468 5.058 15.276C4.194 15.06 3.468 14.826 2.88 14.574C2.292 14.31 1.848 13.968 1.548 13.548C1.26 13.128 1.116 12.582 1.116 11.91C1.116 11.094 1.314 10.404 1.71 9.84C2.106 9.276 2.652 8.85 3.348 8.562C4.044 8.274 4.83 8.13 5.706 8.13C6.282 8.13 6.816 8.19 7.308 8.31C7.812 8.43 8.28 8.598 8.712 8.814C9.144 9.03 9.54 9.288 9.9 9.588L9.144 10.902Z" fill="#1D1F22"/>
</svg>
